<svg width="252" height="251" viewBox="0 0 252 251" fill="none" xmlns="http://www.w3.org/2000/svg">
<path fill-rule="evenodd" clip-rule="evenodd" d="M3.30843 51.4445C0.927981 52.0809 -0.484686 54.5224 0.153155 56.8977L51.3889 247.699C52.0267 250.074 54.4735 251.484 56.854 250.847L248.692 199.556C251.072 198.919 252.485 196.478 251.847 194.102L200.611 3.30128C199.973 0.925975 197.526 -0.483638 195.146 0.152824L3.30843 51.4445ZM103.725 71.6395C109.933 67.1641 118.98 64.7165 127.282 64.0092C134.725 63.3751 141.883 64.6994 149.151 67.8405C154.682 70.2313 159.772 75.8216 163.433 82.5884C164.025 83.6815 164.59 84.6963 165.124 85.656C167.311 89.584 168.984 92.5888 169.851 96.2559C170.031 97.0151 170.334 97.7131 170.734 98.3339C168.386 98.2916 166.064 98.3298 163.803 98.3999C161.543 98.47 159.385 98.5682 157.294 98.6633C153.207 98.8493 149.374 99.0237 145.528 98.954C141.832 98.887 138.781 101.822 138.714 105.51C138.647 109.199 141.589 112.243 145.285 112.31C149.549 112.387 154.127 112.18 158.466 111.985C160.451 111.895 162.386 111.808 164.218 111.751C170.144 111.568 175.478 111.665 180.225 112.607C180.884 112.889 181.6 113.069 182.355 113.127C186.041 113.409 189.257 110.655 189.54 106.978C190.017 100.758 191.208 94.6367 192.619 88.2441C192.948 86.7533 193.292 85.2356 193.641 83.6966L193.642 83.692C194.759 78.7669 195.926 73.6234 196.806 68.4475C197.425 64.8109 194.972 61.3623 191.328 60.7449C187.683 60.1274 184.227 62.5749 183.608 66.2115C182.794 70.9959 181.741 75.6442 180.643 80.4865C180.337 81.838 180.027 83.2046 179.718 84.5934C178.662 82.4077 177.53 80.3927 176.505 78.57C176.048 77.7558 175.611 76.9779 175.213 76.2424C170.803 68.0922 163.833 59.6297 154.472 55.5833C145.422 51.6716 136.05 49.8558 126.143 50.6999C116.541 51.5179 104.804 54.3821 95.8854 60.812C89.1418 65.6737 82.2674 71.4056 77.3359 80.1766L77.2276 80.3693C73.3251 87.3093 67.6898 97.3311 67.5588 108.128C67.5035 112.685 67.96 117.292 68.8948 121.805C66.7613 123.273 64.756 125.087 62.9422 127.306C54.7945 137.269 50.8461 149.083 52.3359 162.917C53.7589 176.13 60.7888 186.821 67.861 195.239C71.9171 200.067 76.2039 204.587 81.0676 208.731C83.2889 210.623 85.9731 212.452 88.2264 213.988C89.1831 214.639 90.0636 215.239 90.7964 215.768C93.7928 217.928 97.9769 217.255 100.142 214.265C102.307 211.275 101.633 207.1 98.6362 204.94C97.2573 203.946 96.051 203.129 94.9422 202.378C93.0564 201.1 91.4524 200.014 89.7602 198.572C85.6031 195.03 81.8354 191.08 78.1199 186.658C71.673 178.984 66.6474 170.788 65.646 161.489C64.5557 151.366 67.3248 143.075 73.3142 135.75L73.418 135.625C75.412 139.968 77.8898 144.044 80.8131 147.688C83.5821 151.139 87.4704 155.04 91.9616 157.928C96.3316 160.738 102.234 163.192 108.57 161.958C113.247 161.047 118.104 158.593 121.544 154.613C125.151 150.439 127.077 144.666 125.464 138.116C123.565 130.401 118.769 125.563 113.367 122.549C108.246 119.691 102.422 118.385 98.0537 117.462C93.0656 116.408 87.2938 115.952 81.5918 116.868C81.1323 114.029 80.9098 111.15 80.9445 108.29C81.0285 101.366 84.7856 94.2273 89.0108 86.7124C92.5102 80.4884 97.4953 76.1308 103.725 71.6395ZM91.2636 139.34C88.9936 136.51 87.0494 133.289 85.4805 129.823C88.5376 129.544 91.854 129.806 95.2795 130.53C99.7428 131.473 103.698 132.458 106.833 134.207C109.686 135.799 111.623 137.885 112.464 141.303C112.948 143.27 112.453 144.678 111.407 145.889C110.193 147.293 108.163 148.427 106.005 148.847C104.577 149.126 102.303 148.686 99.2132 146.7C96.2447 144.791 93.3904 141.991 91.2636 139.34Z" fill="#1d1d1d"/>
</svg>
